<svg viewBox="0 0 128 128">
<path class="linkedin-path" d="
M 116 3 H 12 a 8.91 8.91 0 0 0 -9 8.8 v 104.42 a 8.91 8.91 0 0 0 9 8.78 h 104 a 8.93 8.93 0 0 0 9 -8.81 V 11.77 A 8.93 8.93 0 0 0 116 3 z m -94.94 45.73 h 18.11 V 107 H 21.06 z m 9.06 -29 a 10.5 10.5 0 1 1 -10.5 10.49 a 10.5 10.5 0 0 1 10.5 -10.49 M 50.53 48.73 h 17.36 v 8 h 0.24 c 2.42 -4.58 8.32 -9.41 17.13 -9.41 C 103.6 47.28 107 59.35 107 75 v 32 H 88.89 V 78.65 c 0 -6.75 -0.12 -15.44 -9.41 -15.44 s -10.87 7.36 -10.87 15 V 107 H 50.53 z
"></path>
</svg>
